<svg width="53" height="98" viewBox="0 0 53 98" fill="none" xmlns="http://www.w3.org/2000/svg">
<path d="M49.1657 48.452C46.6087 45.895 43.5029 44.6161 39.8486 44.6161H24.5025C22.6765 44.6161 21.1218 43.9768 19.8449 42.6978C18.5655 41.4188 17.9267 39.8661 17.9267 38.0385V35.8472C17.9267 31.0056 19.6398 26.8725 23.064 23.4466C26.4884 20.0219 30.622 18.3089 35.4655 18.3089H39.8488C41.0364 18.3089 42.0644 17.8748 42.9318 17.0073C43.7988 16.1394 44.2343 15.1121 44.2343 13.9246V5.15454C44.2343 3.96723 43.799 2.939 42.9318 2.07107C42.0646 1.20434 41.0366 0.769531 39.8488 0.769531H35.4655C30.7124 0.769531 26.1813 1.69529 21.8635 3.54418C17.5481 5.39426 13.816 7.89512 10.6641 11.047C7.51228 14.1974 5.01095 17.9309 3.16183 22.2475C1.31247 26.5637 0.38623 31.097 0.38623 35.847V84.0766C0.38623 87.7324 1.66569 90.8365 4.22269 93.3952C6.77993 95.9524 9.8857 97.2309 13.5398 97.2309H39.8472C43.5015 97.2309 46.607 95.9524 49.164 93.3952C51.723 90.8365 52.9998 87.7324 52.9998 84.0766V57.7701C53 54.1148 51.7229 51.011 49.1657 48.452Z" fill="#F7C71D"/>
</svg>
